<svg width="42" height="54" viewBox="0 0 42 54" fill="none" xmlns="http://www.w3.org/2000/svg">
<path fill-rule="evenodd" clip-rule="evenodd" d="M27.0294 0C27.1352 0 27.2389 0.00982971 27.3399 0.0287061L27.6769 0.0309886C28.1794 0.0309886 28.6597 0.256607 29.0094 0.656196L41.4846 15.0006C41.8147 15.3785 41.9997 15.8868 41.9997 16.4114V41.3273C42.0437 48.1475 37.231 53.72 31.0414 53.9973L11.2905 54H11.022C4.98775 53.8495 0.148181 48.4634 0.000743415 41.8687L0 12.2062C0.142855 5.46214 5.18958 0.0309886 11.256 0.0309886L26.719 0.0287061C26.8199 0.00982971 26.9236 0 27.0294 0ZM25.1819 4.10734L11.2609 4.10843C7.1797 4.10843 3.79059 7.75638 3.69453 12.2552V41.3273C3.6034 45.9837 6.92847 49.8193 11.1058 49.9226H30.9675C35.0783 49.735 38.3344 45.9647 38.3051 41.3436L38.3049 18.9818L33.3544 18.9846C28.8471 18.971 25.1821 14.9153 25.1821 9.94624L25.1819 4.10734ZM26.5693 34.2725C27.589 34.2725 28.4166 35.1859 28.4166 36.3112C28.4166 37.4366 27.589 38.35 26.5693 38.35H13.269C12.2493 38.35 11.4218 37.4366 11.4218 36.3112C11.4218 35.1859 12.2493 34.2725 13.269 34.2725H26.5693ZM21.5327 24.0735C22.5524 24.0735 23.38 24.9868 23.38 26.1122C23.38 27.2376 22.5524 28.1509 21.5327 28.1509H13.2668C12.2471 28.1509 11.4195 27.2376 11.4195 26.1122C11.4195 24.9868 12.2471 24.0735 13.2668 24.0735H21.5327ZM28.8764 6.39343L28.8767 9.94624C28.8767 12.6754 30.889 14.899 33.3594 14.9071L36.2803 14.9044L28.8764 6.39343Z" fill="black"/>
</svg>
